HIERARCHY
ROOT Hips
{
	OFFSET 0.553752 88.293289 6.115313
	CHANNELS 6 Xposition Yposition Zposition Zrotation Yrotation Xrotation 
	JOINT Spine
	{
		OFFSET 0.000000 8.814246 -2.080107
		CHANNELS 3 Zrotation Yrotation Xrotation
		JOINT Spine1
		{
			OFFSET 0.000000 8.844141 -0.000000
			CHANNELS 3 Zrotation Yrotation Xrotation
			JOINT Spine2
			{
				OFFSET 0.000000 11.682268 0.000000
				CHANNELS 3 Zrotation Yrotation Xrotation
				JOINT Spine3
				{
					OFFSET 0.000000 11.746700 0.000000
					CHANNELS 3 Zrotation Yrotation Xrotation
					JOINT Neck
					{
						OFFSET -0.000000 17.658264 -0.000000
						CHANNELS 3 Zrotation Yrotation Xrotation
						JOINT Neck1
						{
							OFFSET 0.000000 5.101515 0.000000
							CHANNELS 3 Zrotation Yrotation Xrotation
							JOINT Head
							{
								OFFSET -0.000000 5.101515 -0.000000
								CHANNELS 3 Zrotation Yrotation Xrotation
								JOINT HeadEnd
								{
									OFFSET 0.000000 11.655085 -0.000000
									CHANNELS 3 Zrotation Yrotation Xrotation
									End Site
									{
										OFFSET 0.000000 0.000000 0.000000
									}
								}
							}
						}
					}
					JOINT RightShoulder
					{
						OFFSET -2.625389 11.175210 -0.000000
						CHANNELS 3 Zrotation Yrotation Xrotation
						JOINT RightArm
						{
							OFFSET 0.000000 10.434715 0.000000
							CHANNELS 3 Zrotation Yrotation Xrotation
							JOINT RightForeArm
							{
								OFFSET -0.000000 29.628420 0.000000
								CHANNELS 3 Zrotation Yrotation Xrotation
								JOINT RightHand
								{
									OFFSET 0.000000 22.857611 -0.000000
									CHANNELS 3 Zrotation Yrotation Xrotation
									JOINT RightHandThumb1
									{
										OFFSET -2.867323 3.959563 2.944291
										CHANNELS 3 Zrotation Yrotation Xrotation
										JOINT RightHandThumb2
										{
											OFFSET -0.000000 3.350399 0.000000
											CHANNELS 3 Zrotation Yrotation Xrotation
											JOINT RightHandThumb3
											{
												OFFSET 0.000000 3.756509 -0.000000
												CHANNELS 3 Zrotation Yrotation Xrotation
												JOINT RightHandThumb4
												{
													OFFSET 0.000000 3.147345 -0.000000
													CHANNELS 3 Zrotation Yrotation Xrotation
													End Site
													{
														OFFSET 0.000000 0.000000 0.000000
													}
												}
											}
										}
									}
									JOINT RightHandIndex1
									{
										OFFSET -0.086752 10.030893 2.345280
										CHANNELS 3 Zrotation Yrotation Xrotation
										JOINT RightHandIndex2
										{
											OFFSET -0.000000 4.061090 -0.000000
											CHANNELS 3 Zrotation Yrotation Xrotation
											JOINT RightHandIndex3
											{
												OFFSET 0.000000 3.248873 0.000000
												CHANNELS 3 Zrotation Yrotation Xrotation
												JOINT RightHandIndex4
												{
													OFFSET -0.000000 2.639709 0.000000
													CHANNELS 3 Zrotation Yrotation Xrotation
													End Site
													{
														OFFSET 0.000000 0.000000 0.000000
													}
												}
											}
										}
									}
									JOINT RightHandMiddle1
									{
										OFFSET 0.104102 9.502952 0.006768
										CHANNELS 3 Zrotation Yrotation Xrotation
										JOINT RightHandMiddle2
										{
											OFFSET 0.000000 4.568727 -0.000000
											CHANNELS 3 Zrotation Yrotation Xrotation
											JOINT RightHandMiddle3
											{
												OFFSET 0.000000 3.654981 -0.000000
												CHANNELS 3 Zrotation Yrotation Xrotation
												JOINT RightHandMiddle4
												{
													OFFSET -0.000000 2.741236 0.000000
													CHANNELS 3 Zrotation Yrotation Xrotation
													End Site
													{
														OFFSET 0.000000 0.000000 0.000000
													}
												}
											}
										}
									}
									JOINT RightHandRing1
									{
										OFFSET 0.086752 8.921708 -2.267442
										CHANNELS 3 Zrotation Yrotation Xrotation
										JOINT RightHandRing2
										{
											OFFSET -0.000000 4.061090 0.000000
											CHANNELS 3 Zrotation Yrotation Xrotation
											JOINT RightHandRing3
											{
												OFFSET 0.000000 3.654981 0.000000
												CHANNELS 3 Zrotation Yrotation Xrotation
												JOINT RightHandRing4
												{
													OFFSET 0.000000 2.741236 0.000000
													CHANNELS 3 Zrotation Yrotation Xrotation
													End Site
													{
														OFFSET 0.000000 0.000000 0.000000
													}
												}
											}
										}
									}
									JOINT RightHandPinky1
									{
										OFFSET -0.173504 7.976997 -4.467199
										CHANNELS 3 Zrotation Yrotation Xrotation
										JOINT RightHandPinky2
										{
											OFFSET 0.000000 3.350399 -0.000000
											CHANNELS 3 Zrotation Yrotation Xrotation
											JOINT RightHandPinky3
											{
												OFFSET -0.000000 2.842763 0.000000
												CHANNELS 3 Zrotation Yrotation Xrotation
												JOINT RightHandPinky4
												{
													OFFSET -0.000000 2.639709 0.000000
													CHANNELS 3 Zrotation Yrotation Xrotation
													End Site
													{
														OFFSET 0.000000 0.000000 0.000000
													}
												}
											}
										}
									}
									JOINT RightForeArmEnd
									{
										OFFSET 0.000000 0.000000 0.000000
										CHANNELS 3 Zrotation Yrotation Xrotation
										End Site
										{
											OFFSET 0.000000 0.000000 0.000000
										}
									}
								}
								JOINT RightArmEnd
								{
									OFFSET 0.000000 0.000000 0.000000
									CHANNELS 3 Zrotation Yrotation Xrotation
									End Site
									{
										OFFSET 0.000000 0.000000 0.000000
									}
								}
							}
						}
					}
					JOINT LeftShoulder
					{
						OFFSET 2.625389 11.175210 -0.000000
						CHANNELS 3 Zrotation Yrotation Xrotation
						JOINT LeftArm
						{
							OFFSET 0.000000 10.813635 -0.000000
							CHANNELS 3 Zrotation Yrotation Xrotation
							JOINT LeftForeArm
							{
								OFFSET -0.000000 28.724781 -0.000000
								CHANNELS 3 Zrotation Yrotation Xrotation
								JOINT LeftHand
								{
									OFFSET 0.644384 25.716167 -0.328871
									CHANNELS 3 Zrotation Yrotation Xrotation
									JOINT LeftHandThumb1
									{
										OFFSET 2.867323 3.959563 2.944291
										CHANNELS 3 Zrotation Yrotation Xrotation
										JOINT LeftHandThumb2
										{
											OFFSET 0.000000 3.350399 -0.000000
											CHANNELS 3 Zrotation Yrotation Xrotation
											JOINT LeftHandThumb3
											{
												OFFSET 0.000000 3.756509 0.000000
												CHANNELS 3 Zrotation Yrotation Xrotation
												JOINT LeftHandThumb4
												{
													OFFSET 0.000000 3.100000 0.000000
													CHANNELS 3 Zrotation Yrotation Xrotation
													End Site
													{
														OFFSET 0.000000 0.000000 0.000000
													}
												}
											}
										}
									}
									JOINT LeftHandIndex1
									{
										OFFSET 0.086752 10.030893 2.345280
										CHANNELS 3 Zrotation Yrotation Xrotation
										JOINT LeftHandIndex2
										{
											OFFSET 0.000000 4.061090 0.000000
											CHANNELS 3 Zrotation Yrotation Xrotation
											JOINT LeftHandIndex3
											{
												OFFSET -0.000000 3.248873 -0.000000
												CHANNELS 3 Zrotation Yrotation Xrotation
												JOINT LeftHandIndex4
												{
													OFFSET 0.000000 2.639709 0.000000
													CHANNELS 3 Zrotation Yrotation Xrotation
													End Site
													{
														OFFSET 0.000000 0.000000 0.000000
													}
												}
											}
										}
									}
									JOINT LeftHandMiddle1
									{
										OFFSET -0.104102 9.502952 0.006768
										CHANNELS 3 Zrotation Yrotation Xrotation
										JOINT LeftHandMiddle2
										{
											OFFSET -0.000000 4.568727 -0.000000
											CHANNELS 3 Zrotation Yrotation Xrotation
											JOINT LeftHandMiddle3
											{
												OFFSET -0.000000 3.654981 -0.000000
												CHANNELS 3 Zrotation Yrotation Xrotation
												JOINT LeftHandMiddle4
												{
													OFFSET -0.000000 2.741236 0.000000
													CHANNELS 3 Zrotation Yrotation Xrotation
													End Site
													{
														OFFSET 0.000000 0.000000 0.000000
													}
												}
											}
										}
									}
									JOINT LeftHandRing1
									{
										OFFSET -0.086752 8.921708 -2.267442
										CHANNELS 3 Zrotation Yrotation Xrotation
										JOINT LeftHandRing2
										{
											OFFSET -0.000000 4.061090 -0.000000
											CHANNELS 3 Zrotation Yrotation Xrotation
											JOINT LeftHandRing3
											{
												OFFSET 0.000000 3.654981 -0.000000
												CHANNELS 3 Zrotation Yrotation Xrotation
												JOINT LeftHandRing4
												{
													OFFSET 0.000000 2.741236 -0.000000
													CHANNELS 3 Zrotation Yrotation Xrotation
													End Site
													{
														OFFSET 0.000000 0.000000 0.000000
													}
												}
											}
										}
									}
									JOINT LeftHandPinky1
									{
										OFFSET 0.173504 7.976997 -4.467199
										CHANNELS 3 Zrotation Yrotation Xrotation
										JOINT LeftHandPinky2
										{
											OFFSET 0.000000 3.350399 0.000000
											CHANNELS 3 Zrotation Yrotation Xrotation
											JOINT LeftHandPinky3
											{
												OFFSET -0.000000 2.842763 -0.000000
												CHANNELS 3 Zrotation Yrotation Xrotation
												JOINT LeftHandPinky4
												{
													OFFSET -0.000000 2.639709 0.000000
													CHANNELS 3 Zrotation Yrotation Xrotation
													End Site
													{
														OFFSET 0.000000 0.000000 0.000000
													}
												}
											}
										}
									}
									JOINT LeftForeArmEnd
									{
										OFFSET 0.000000 0.000000 0.000000
										CHANNELS 3 Zrotation Yrotation Xrotation
										End Site
										{
											OFFSET 0.000000 0.000000 0.000000
										}
									}
								}
								JOINT LeftArmEnd
								{
									OFFSET 0.000000 0.000000 0.000000
									CHANNELS 3 Zrotation Yrotation Xrotation
									End Site
									{
										OFFSET 0.000000 0.000000 0.000000
									}
								}
							}
						}
					}
				}
			}
		}
	}
	JOINT RightUpLeg
	{
		OFFSET -11.289943 -0.000000 0.000000
		CHANNELS 3 Zrotation Yrotation Xrotation
		JOINT RightLeg
		{
			OFFSET -0.000000 -38.200325 -0.000000
			CHANNELS 3 Zrotation Yrotation Xrotation
			JOINT RightFoot
			{
				OFFSET 0.000000 -39.900856 0.000000
				CHANNELS 3 Zrotation Yrotation Xrotation
				JOINT RightToeBase
				{
					OFFSET -0.000000 -0.000000 15.261641
					CHANNELS 3 Zrotation Yrotation Xrotation
					JOINT RightToeBaseEnd
					{
						OFFSET 0.000000 0.000000 7.370709
						CHANNELS 3 Zrotation Yrotation Xrotation
						End Site
						{
							OFFSET 0.000000 0.000000 0.000000
						}
					}
				}
				JOINT RightLegEnd
				{
					OFFSET 0.000000 0.000000 0.000000
					CHANNELS 3 Zrotation Yrotation Xrotation
					End Site
					{
						OFFSET 0.000000 0.000000 0.000000
					}
				}
			}
			JOINT RightUpLegEnd
			{
				OFFSET 0.000000 0.000000 0.000000
				CHANNELS 3 Zrotation Yrotation Xrotation
				End Site
				{
					OFFSET 0.000000 0.000000 0.000000
				}
			}
		}
	}
	JOINT LeftUpLeg
	{
		OFFSET 11.315661 0.000000 0.000000
		CHANNELS 3 Zrotation Yrotation Xrotation
		JOINT LeftLeg
		{
			OFFSET 0.000000 -38.200325 0.000000
			CHANNELS 3 Zrotation Yrotation Xrotation
			JOINT LeftFoot
			{
				OFFSET 0.000000 -39.900856 0.000000
				CHANNELS 3 Zrotation Yrotation Xrotation
				JOINT LeftToeBase
				{
					OFFSET 0.000000 0.000000 15.261641
					CHANNELS 3 Zrotation Yrotation Xrotation
					JOINT LeftToeBaseEnd
					{
						OFFSET 0.000000 -0.000000 7.539996
						CHANNELS 3 Zrotation Yrotation Xrotation
						End Site
						{
							OFFSET 0.000000 0.000000 0.000000
						}
					}
				}
				JOINT LeftLegEnd
				{
					OFFSET 0.000000 0.000000 0.000000
					CHANNELS 3 Zrotation Yrotation Xrotation
					End Site
					{
						OFFSET 0.000000 0.000000 0.000000
					}
				}
			}
			JOINT LeftUpLegEnd
			{
				OFFSET 0.000000 0.000000 0.000000
				CHANNELS 3 Zrotation Yrotation Xrotation
				End Site
				{
					OFFSET 0.000000 0.000000 0.000000
				}
			}
		}
	}
}
MOTION
Frames: 4
Frame Time: 0.016667
-4.889946 87.781731 7.181451 -0.178766 0.167923 -19.974808 1.513927 -0.362999 10.256019 0.297457 -0.250564 0.957030 -0.633426 -2.102551 15.749637 -0.518381 -0.612796 8.352890 5.442650 -1.467225 11.510385 0.276150 0.973504 -0.634627 -0.019300 -0.555130 -21.497742 0.000000 0.000000 0.000000 94.163223 -1.313071 11.445910 56.829010 -12.698786 13.681879 -0.012281 23.393389 22.319653 10.555706 39.690357 -1.851593 10.392848 -1.785783 40.005352 0.000006 0.000012 -25.368593 -0.000002 0.000062 -17.694048 0.000009 0.000012 -0.000032 12.652321 0.041274 -5.779099 8.023236 -0.018417 0.109987 7.990418 -0.013379 0.075336 -0.000018 0.000046 -0.000009 12.069914 0.008091 -7.367906 7.669047 -0.011381 0.006885 7.773384 0.005015 0.019856 -0.000002 -0.000079 -0.000009 14.264584 -0.027606 -7.966872 9.611526 0.020053 -0.018736 9.420477 -0.003736 -0.004162 -0.000013 -0.000617 0.000018 15.694162 -0.043280 -9.820542 10.808940 0.001697 0.158988 10.849764 -0.065796 0.115138 -0.000261 0.000000 -0.000027 0.000000 0.000000 0.000000 0.000000 0.000000 0.000000 -90.666107 0.101398 7.865148 -66.929413 -0.169731 3.626376 -1.442650 -17.096893 42.381248 -3.968666 -61.590893 -7.276133 -10.292160 1.787793 40.007744 0.000023 0.000038 -25.358599 0.000015 -0.000009 -17.532352 0.001137 0.000007 0.000478 -13.454953 0.088142 -4.815886 -8.728102 -0.004023 0.065632 -8.790937 0.025332 0.068948 -0.000015 -0.000374 -0.000026 -13.826297 0.027869 -6.992815 -8.847856 -0.004473 0.030907 -8.766726 0.007783 0.015561 0.001503 -0.000017 -0.000090 -17.152878 0.007831 -9.124178 -11.101017 0.005717 -0.081376 -10.944177 -0.018517 -0.055883 -0.001433 0.000010 -0.000005 -19.650583 0.031494 -11.535882 -12.829751 0.004863 -0.286543 -12.550856 -0.069014 -0.219423 -0.000174 0.000006 -0.000043 0.000000 0.000000 0.000000 0.000000 0.000000 0.000000 -3.732429 -8.870737 23.218094 -0.153458 -0.865917 10.913254 0.795962 -12.121530 12.669794 -1.301276 1.138065 -16.483421 0.000000 0.000000 0.000000 0.000000 0.000000 0.000000 0.000000 0.000000 0.000000 3.266279 -3.900928 18.271669 0.221118 0.862742 14.641254 -0.536783 1.025011 12.368274 0.675547 -0.988416 -18.761879 0.000000 0.000000 0.000000 0.000000 0.000000 0.000000 0.000000 0.000000 0.000000 
-4.890813 87.778015 7.194140 -0.162263 0.211923 -19.978855 1.491848 -0.360489 10.282935 0.301958 -0.255047 0.918069 -0.641159 -2.112090 15.803872 -0.528066 -0.617016 8.320158 5.416399 -1.482191 11.506627 0.263763 0.935070 -0.627991 -0.010589 -0.546687 -21.474865 0.000000 0.000000 0.000000 94.214500 -1.315596 11.498431 56.798786 -13.458076 13.868780 -0.028382 23.067713 21.911777 10.402061 39.101398 -2.121638 10.388732 -1.784953 40.007725 0.000006 0.000013 -25.356632 -0.000002 0.000061 -17.682775 0.000009 0.000012 -0.000033 12.613879 0.039402 -5.982340 8.038599 -0.017417 0.107980 8.013164 -0.012262 0.072397 -0.000018 0.000046 -0.000010 12.030989 0.007828 -7.548504 7.683935 -0.011040 0.005833 7.787338 0.005232 0.019045 -0.000002 -0.000078 -0.000008 14.224986 -0.028011 -8.078981 9.638112 0.018887 -0.017093 9.450631 -0.004402 -0.003357 -0.000013 -0.000554 0.000018 15.645513 -0.045291 -9.867290 10.835559 -0.001403 0.160142 10.873611 -0.068262 0.114087 -0.000260 0.000000 -0.000026 0.000000 0.000000 0.000000 0.000000 0.000000 0.000000 -90.713608 0.104551 7.918016 -66.868553 0.684246 3.635890 -1.439772 -16.705929 41.748386 -3.333451 -60.591118 -8.127934 -10.295543 1.790055 40.006626 0.000022 0.000037 -25.353500 0.000016 -0.000009 -17.533867 0.001130 0.000006 0.000511 -13.496432 0.087602 -5.125951 -8.695600 -0.003553 0.062399 -8.764325 0.025542 0.065982 -0.000014 -0.000333 -0.000026 -13.814382 0.027804 -7.249856 -8.804830 -0.004514 0.030105 -8.724814 0.007670 0.014312 0.001487 -0.000017 -0.000086 -17.078056 0.007790 -9.269849 -11.037474 0.006512 -0.078840 -10.884006 -0.018107 -0.053710 -0.001432 0.000010 -0.000005 -19.544096 0.029839 -11.558131 -12.743701 0.006016 -0.277185 -12.464588 -0.068111 -0.212998 -0.000177 0.000005 -0.000043 0.000000 0.000000 0.000000 0.000000 0.000000 0.000000 -3.756293 -8.875575 23.215643 -0.153112 -0.863531 10.952184 0.799163 -12.155767 12.650111 -1.302571 1.136687 -16.487459 0.000000 0.000000 0.000000 0.000000 0.000000 0.000000 0.000000 0.000000 0.000000 3.248507 -3.892940 18.263618 0.220572 0.858470 14.645045 -0.524805 0.983073 12.380037 0.673151 -0.986694 -18.757849 0.000000 0.000000 0.000000 0.000000 0.000000 0.000000 0.000000 0.000000 0.000000 
-4.891313 87.774040 7.205472 -0.145016 0.260991 -19.979605 1.468802 -0.357836 10.311297 0.306951 -0.259647 0.878197 -0.648558 -2.122128 15.855376 -0.538426 -0.622025 8.284808 5.396788 -1.503587 11.494389 0.252724 0.893247 -0.623441 0.000342 -0.537780 -21.450268 0.000000 0.000000 0.000000 94.258141 -1.319174 11.548543 56.769470 -14.293892 14.058466 -0.047061 22.698809 21.539768 10.268249 38.426941 -2.372430 10.388611 -1.784142 40.008930 0.000006 0.000014 -25.353392 -0.000001 0.000061 -17.677576 0.000009 0.000012 -0.000033 12.600981 0.037373 -6.196220 8.075287 -0.015996 0.104584 8.056437 -0.010768 0.068144 -0.000018 0.000046 -0.000010 12.015367 0.007520 -7.738921 7.718066 -0.010542 0.004199 7.820650 0.005575 0.017742 -0.000002 -0.000074 -0.000008 14.205598 -0.028472 -8.199845 9.681992 0.017451 -0.014623 9.498726 -0.005300 -0.001961 -0.000013 -0.000490 0.000017 15.612316 -0.047432 -9.918638 10.875422 -0.005323 0.163375 10.910371 -0.071439 0.114775 -0.000260 0.000000 -0.000024 0.000000 0.000000 0.000000 0.000000 0.000000 0.000000 -90.756546 0.104819 7.973684 -66.810005 1.629143 3.642060 -1.432588 -16.279520 41.142555 -2.865933 -59.461201 -8.863738 -10.305111 1.792692 40.003136 0.000022 0.000037 -25.361673 0.000019 -0.000009 -17.545790 0.001118 0.000005 0.000535 -13.571259 0.087267 -5.452379 -8.677376 -0.002684 0.060557 -8.751699 0.026170 0.064168 -0.000014 -0.000295 -0.000026 -13.830644 0.027831 -7.524207 -8.773676 -0.004434 0.029832 -8.694263 0.007677 0.013443 0.001466 -0.000017 -0.000080 -17.020329 0.007737 -9.435058 -10.981259 0.007140 -0.076900 -10.830698 -0.017863 -0.051965 -0.001426 0.000010 -0.000005 -19.443705 0.028367 -11.597643 -12.659374 0.006678 -0.268978 -12.381102 -0.067602 -0.207383 -0.000179 0.000005 -0.000043 0.000000 0.000000 0.000000 0.000000 0.000000 0.000000 -3.779423 -8.879586 23.206385 -0.152709 -0.861151 10.997301 0.802186 -12.194245 12.631896 -1.304180 1.135428 -16.493570 0.000000 0.000000 0.000000 0.000000 0.000000 0.000000 0.000000 0.000000 0.000000 3.228624 -3.888482 18.248409 0.219991 0.854178 14.655963 -0.512391 0.941114 12.393101 0.669852 -0.984653 -18.757309 0.000000 0.000000 0.000000 0.000000 0.000000 0.000000 0.000000 0.000000 0.000000 
-4.891140 87.769836 7.215528 -0.127118 0.316562 -19.976002 1.445164 -0.354702 10.339073 0.312497 -0.264405 0.839832 -0.656215 -2.132967 15.902099 -0.549774 -0.628145 8.246979 5.380069 -1.526242 11.472706 0.242809 0.851412 -0.622102 0.012351 -0.528573 -21.421535 0.000000 0.000000 0.000000 94.296158 -1.323911 11.595178 56.746330 -15.203526 14.246027 -0.067875 22.288158 21.208796 10.145013 37.652908 -2.613258 10.392853 -1.783413 40.008839 0.000006 0.000015 -25.359520 -0.000001 0.000061 -17.678818 0.000009 0.000012 -0.000033 12.618918 0.035261 -6.417389 8.134657 -0.014218 0.100246 8.121846 -0.008963 0.063052 -0.000017 0.000046 -0.000011 12.028108 0.007157 -7.935810 7.772612 -0.009911 0.002201 7.874468 0.006015 0.016153 -0.000003 -0.000069 -0.000008 14.212118 -0.028985 -8.327124 9.744475 0.015802 -0.011655 9.565866 -0.006393 -0.000200 -0.000013 -0.000424 0.000017 15.601680 -0.049597 -9.972973 10.930223 -0.009945 0.167912 10.961991 -0.075247 0.116649 -0.000262 0.000000 -0.000022 0.000000 0.000000 0.000000 0.000000 0.000000 0.000000 -90.796196 0.103164 8.032491 -66.752953 2.667211 3.650986 -1.419466 -15.814952 40.566082 -2.515838 -58.200256 -9.519920 -10.319714 1.795570 39.997746 0.000021 0.000037 -25.380724 0.000022 -0.000009 -17.566277 0.001098 0.000004 0.000549 -13.677715 0.087122 -5.789026 -8.674024 -0.001459 0.059965 -8.753574 0.027194 0.063366 -0.000013 -0.000261 -0.000026 -13.875681 0.027940 -7.809545 -8.754741 -0.004234 0.029978 -8.675273 0.007793 0.012892 0.001439 -0.000018 -0.000072 -16.981281 0.007665 -9.613949 -10.933558 0.007608 -0.075395 -10.785251 -0.017780 -0.050514 -0.001415 0.000011 -0.000005 -19.351343 0.027103 -11.648995 -12.578119 0.006853 -0.261499 -12.301414 -0.067478 -0.202175 -0.000180 0.000005 -0.000043 0.000000 0.000000 0.000000 0.000000 0.000000 0.000000 -3.801905 -8.884493 23.190077 -0.152278 -0.858763 11.046980 0.806047 -12.236958 12.616381 -1.305771 1.134142 -16.502527 0.000000 0.000000 0.000000 0.000000 0.000000 0.000000 0.000000 0.000000 0.000000 3.206621 -3.889421 18.225197 0.219434 0.850113 14.671315 -0.499496 0.897775 12.409310 0.665663 -0.982529 -18.760988 0.000000 0.000000 0.000000 0.000000 0.000000 0.000000 0.000000 0.000000 0.000000 
